<?xml version="1.0" encoding="UTF-8"?>
<svg id="Layer_1" data-name="Layer 1" xmlns="http://www.w3.org/2000/svg" viewBox="0 0 7636.95 4262.03">
  <defs>
    <style>
      .cls-1 {
        fill: #6184c2;
        stroke-width: 0px;
      }
    </style>
  </defs>
  <path class="cls-1" d="M5072.76,1164.09c3.49-5.7,7.27-11.25,10.43-17.13,25.12-46.81,53.89-91.16,86.63-133.06,73.33-93.86,168.45-154.15,282.43-186.51,94.39-26.81,190.68-34.54,288.3-32.17,67.9,1.64,135.06,8.46,200.66,26.51,85.05,23.4,156.04,70.66,218.62,131.54,51.73,50.32,95.55,107.19,136.56,166.35,3.9,5.63,8.17,10.99,14.14,18.99,5.48-9.42,9.77-16.13,13.41-23.18,29.99-57.92,67-110.75,113.11-157.08,65.57-65.89,144.53-108.44,233.14-134.26,87.42-25.46,176.91-31.86,267.37-28.47,141.36,5.3,272.4,43.96,390.48,122.99,105.45,70.58,182.59,165.51,237.44,279.25,33.5,69.47,56.08,142.28,64.42,219.03,3.74,34.45,6.47,69.2,6.51,103.82.43,417.04.48,834.08.11,1251.12-.08,84.05-35.53,151.37-103.18,200.85-38.38,28.07-81.91,43.75-129.92,44.62-30.03.54-60.11.98-90.11-.11-116.76-4.22-216.45-97.12-229.4-213.38-1.75-15.75-2.78-31.66-2.79-47.5-.18-356.37,0-712.74-.34-1069.11-.08-78.51-14.09-154.61-46.47-226.56-30.98-68.83-75.79-126.07-143.15-162.96-57.16-31.3-118.12-45.04-183.55-39.16-104.7,9.41-183.06,62.39-243.49,145.37-45.92,63.05-73.12,133.84-85.81,210.57-7.03,42.54-9.16,85.38-9.16,128.38-.04,339.29-.12,678.58.1,1017.86.02,36.29-3.02,71.91-18.2,105.26-42.55,93.49-114.23,145.99-217.84,151.26-32.9,1.67-65.97.76-98.94.06-106.76-2.28-211.31-85.14-229.57-205.18-2.73-17.93-3.38-36.31-3.39-54.49-.19-353.42-.01-706.85-.25-1060.28-.05-65.98-3.75-131.84-17.62-196.55-5.03-23.47-11.93-46.8-20.65-69.16-27.21-69.83-77.44-115.93-149.45-136.48-82.74-23.61-166.94-27.84-251.54-11.49-114.3,22.09-188.52,90.85-227.17,199.41-16.47,46.27-26.13,94.09-28.55,143.14-1.88,38.19-3.41,76.45-3.44,114.68-.26,342.82-.53,685.64.06,1028.47.2,117.33-80.57,223.85-206.45,245.96-9.8,1.72-19.94,1.99-29.92,2.06-32.39.24-64.8.56-97.18,0-120.95-2.11-226.12-102.47-233.74-224.33-1.36-21.72-2.22-43.52-2.23-65.28-.12-537.79-.09-1075.59-.1-1613.38,0-51.53,8.86-100.9,37.16-145.03,47.62-74.25,115.58-114.01,203.95-116.97,35.8-1.2,71.69-2.08,107.12,6.83,96.55,24.28,170.16,105.41,182.76,204.53,3.25,25.55,2.23,51.64,3.06,77.49.22,6.95.03,13.91.03,20.86,1.87.66,3.74,1.31,5.6,1.97Z"/>
  <path class="cls-1" d="M552.12,2702.68c-1.53,15.58-2.67,31.2-4.65,46.72-12.88,101.1-91.25,187.28-191.82,205.73-57.43,10.54-116.76,12.9-173.47-3.05-100.65-28.32-159.88-97-179.75-199.37-2.44-12.58-1.91-25.83-1.91-38.77C.44,1891.71.83,1069.48,0,247.24-.11,136.05,77.14,30.83,192.15,6.02c14.85-3.2,30.21-4.99,45.4-5.47,27.65-.87,55.36-.55,83.03-.21,111.79,1.38,212.5,85.25,233.19,195.12,3.78,20.08,4.8,40.93,4.82,61.42.31,263.28.18,526.56.33,789.84,0,8.34-2.67,17.53,5.41,26.74,5.26-6.47,10.13-12.08,14.6-18,63.4-84,137.5-156.5,227.75-211.54,85.59-52.2,178.3-84.05,277.5-98.32,66.26-9.53,132.83-10.31,199.13-5.71,170.99,11.87,324.51,69.79,456.68,180.65,79.92,67.03,143.43,147.58,194.64,238.07,66.18,116.94,107.57,242.7,132.48,374.29,13.15,69.44,22.67,139.38,24.81,210.03,1.98,65.3,4.78,130.76,2.27,195.96-7.09,183.75-40.96,362.11-116.3,531.09-56.75,127.29-132.01,241.59-236.81,334.96-103.17,91.92-222.6,152.77-356.2,186.62-93.27,23.63-188.12,29.58-283.82,24.86-98.66-4.87-193.24-26.65-282.03-70.93-104.37-52.05-185.72-129.59-249.73-226.24-4.09-6.18-8.44-12.2-12.66-18.29-1.51.57-3.02,1.14-4.53,1.72ZM1518.03,1889.86c.77-84.88-5.89-166.28-21.51-246.82-14.54-74.97-37.49-147.02-76.6-213.24-54.85-92.85-133.24-155.98-237.01-186.27-83.22-24.3-168.01-28.23-253.41-14.62-58.11,9.26-112.65,28.85-162.08,61.62-63.07,41.81-108.63,98.73-142.25,165.59-45.85,91.16-67.04,189.23-77.96,289.8-4.06,37.39-5.23,75.09-7.89,112.64-6.01,84.99-1.43,169.42,15.06,252.99,19.31,97.88,56.93,187.82,119.33,266.53,47.52,59.95,103.78,109.3,174.15,140.76,73.14,32.7,149.71,42.67,229.35,34.05,94.91-10.28,176.2-48.74,244.66-114.6,81.97-78.84,133.5-175.57,163.9-284.15,24.45-87.31,33.94-176.58,32.27-264.26Z"/>
  <path class="cls-1" d="M2833.04,2026.35c1.61,20.58,2.39,38.67,4.54,56.6,7.87,65.68,21.79,129.95,47.6,191.15,41.14,97.54,102.97,178.06,194.82,233.16,61.24,36.73,128.13,54.6,199.18,60.11,72.67,5.63,143.33-2.22,212.21-25.53,47.24-15.99,91.24-38.56,128.74-71.8,17.08-15.14,32.29-32.57,47.19-49.97,37.91-44.26,83.56-76.52,141.22-87.95,60.66-12.03,121.05-10.16,177.69,17.77,81.27,40.07,126.83,106.52,137.94,196.08,10.15,81.84-17.59,150.53-76.19,207.22-130.93,126.66-286.74,205.48-464.71,242.52-105.19,21.89-211.4,24.54-318.05,20.59-125.21-4.63-248.18-23.31-367.37-63.15-134.58-44.98-253.74-115.11-352.25-218.33-78.71-82.47-136.57-178.25-179.25-283.48-38.21-94.22-62.8-192.15-78.39-292.5-12.94-83.27-18.79-167.04-22.33-251.2-2.41-57.23-1.4-114.29,2.03-171.21,11.89-197.22,58.49-384.7,162.5-555,107.28-175.67,258.09-299.05,450.23-372.22,77.88-29.65,158.44-48.28,240.91-59.8,92.55-12.92,185.55-14.51,278.46-9.62,137.48,7.23,270.49,35.4,395.16,96.21,148.84,72.61,263.34,182.25,347.7,324.11,63.17,106.23,104.3,221.11,132.79,340.83,18.81,79.05,31.23,159.14,40.2,239.91,5.26,47.4,1.91,93.11-18.27,136.32-42.27,90.51-113.33,140.32-213.6,147-9.39.63-18.84.24-28.27.24-396.99,0-793.98,0-1190.97.08-9.71,0-19.42,1.11-31.45,1.85ZM3296.06,1668.73c138.34,0,276.68,0,415.02,0,4.71,0,9.42.07,14.13-.03,16.93-.35,19.43-2.73,18.01-19.85-1.45-17.57-3.53-35.09-5.66-52.6-9.12-75.13-31.78-145.74-71.42-210.48-47.01-76.77-111.86-133.01-195.83-165.87-68.83-26.94-140.12-38.36-214.34-31.52-56.55,5.21-109.86,20.08-159.23,47.83-108.96,61.26-179.22,153.75-216.67,272.07-13.52,42.72-21.44,86.62-26.95,131.06-3.53,28.48-3.43,29.38,24.39,29.38,139.52.01,279.03,0,418.55,0Z"/>
  <path class="cls-1" d="M6097.2,4262.03c-56.48-1.77-113.12-1.4-169.38-5.84-70.87-5.6-141.61-13.78-212.07-23.27-102.74-13.84-203.47-37.59-302.62-67.82-215-65.53-413.68-162.8-588.99-304.93-92.46-74.96-174.84-159.47-240.17-259.61-17.7-27.13-35.84-54.33-43.53-86.33-18.78-78.21,5.66-152.28,68.77-202.02,80.3-63.29,194.44-61.24,272.3,4.82,15.04,12.76,29.37,28.06,39.18,44.99,48.76,84.1,115.91,151,191.89,209.86,130.13,100.81,276.43,169.58,433.36,216.84,88.56,26.67,178.89,44.91,270.52,57.84,129.94,18.33,260.49,20.31,391.14,15.62,75.17-2.7,150.39-8.63,225.13-17.09,137.15-15.53,271.68-43.7,400.52-94.93,85.32-33.93,165-77.64,235.41-137.27,70.32-59.57,125.68-130.57,162.38-215.25,32.32-74.57,88.46-116.76,168.12-128.97,78.19-11.98,170.77,23.79,214.37,105.47,29.93,56.07,30.59,113.49,5.3,171.73-73.35,168.9-186.12,305.87-334.7,413.8-124.17,90.2-261.84,152.8-407.83,198.19-101.85,31.67-205.83,54.19-311.21,69.88-54.04,8.05-108.49,13.56-162.88,19.08-101.38,10.27-203.08,14.43-305.01,15.21Z"/>
  <path class="cls-1" d="M614.81,3691.05c15.34,43.96,44.08,59.37,88.45,48.65,31.94-7.71,50.25-30.34,50.91-63.37.22-11.17-.22-22.36-.6-33.53-.05-1.46-1.49-2.87-3-5.59-3.05,2.41-5.99,4.03-7.99,6.44-14.98,18.02-34.88,25.61-57.5,26.58-12.3.53-24.96.95-36.97-1.23-37.43-6.8-65.31-27.71-79.18-63.22-21.07-53.94-21.91-108.13,6.6-160.23,24.93-45.55,74.19-67.4,122.38-55.8,15.35,3.7,28.41,11.03,39.26,22.44,3.82,4.02,7.75,7.93,14.41,14.73,1.92-13.18,3.21-22.04,4.8-32.91,19.86,0,39.12-.31,58.35.37,2.6.09,6.1,4.79,7.24,8.04,1.29,3.69.46,8.14.46,12.26,0,86,.2,172-.2,258-.06,12.83-1.61,25.95-4.62,38.41-7.73,31.91-25.81,56.98-55.33,71.89-49.99,25.26-100.83,25.57-151.01.5-26.52-13.25-43.91-35.06-52.32-63.66-1.32-4.48-2.27-9.15-2.64-13.8-1.1-13.73.6-15.88,13.84-16.33,11.77-.4,23.56-.14,35.34,0,2.87.04,5.74.8,9.34,1.34ZM622.96,3531.76c3.26,14.54,4.93,29.99,10.3,44.03,7.9,20.66,22.43,36.05,45.42,40.39,35.04,6.61,65.99-14.52,74.41-51.46,6.28-27.58,4.19-55.08-6.03-81.51-9.44-24.41-30.06-37.67-56.41-37.55-27.48.12-48.93,13.62-57.38,38.71-5.01,14.87-6.83,30.82-10.32,47.4Z"/>
  <path class="cls-1" d="M3335.95,3669.56c-1.63-11.75-2.8-20.16-4.27-30.77-4.5,2.95-7.24,3.98-8.89,5.93-28.02,33.1-63.72,37.11-102.77,26.63-32.35-8.68-54.63-30.21-67.59-60.18-23.31-53.9-23.95-108.97-.76-162.92,20.85-48.52,69.98-71.06,120.96-58.23,16.44,4.14,30.28,12.64,42.25,24.48,3.96,3.92,8.15,7.61,15.23,14.19.62-9.62,1.28-15.17,1.29-20.72.1-32.98-.05-65.96.1-98.94.08-17.12.74-17.63,18.08-17.76,12.37-.09,24.74.27,37.1-.08,9.17-.26,12.95,3.88,12.44,12.74-.17,2.93,0,5.89,0,8.83,0,111.89,0,223.78,0,335.68,0,3.53-.13,7.07-.08,10.6.09,6.31-2.72,10.38-9.21,10.46-17.5.21-35.01.07-53.87.07ZM3335.13,3534.93c-.67-8.78-.85-17.62-2.15-26.31-1.12-7.51-2.9-15.04-5.43-22.19-9.78-27.66-29.24-41.93-56.56-42.08-28.81-.16-50.14,15.04-59.62,43.18-2.61,7.74-4.5,15.88-5.44,23.99-3.3,28.59-1.31,56.39,14.83,81.49,25.87,40.26,80.02,34.68,100.64-2.3,9.71-17.43,14.63-35.79,13.74-55.79Z"/>
  <path class="cls-1" d="M3608.46,3393.5h148.33c5.56,15.7,3.27,29.53,2.12,45.51-6.45.59-12.6,1.6-18.76,1.63-33.57.16-67.14.08-100.71.08-4.12,0-8.25-.06-12.37.03-18.03.37-19.28,1.38-19.37,18.99-.17,32.98-.24,65.97.11,98.95.09,8.15,1.33,16.43,3.14,24.4,5.16,22.63,17.42,32.84,39.04,33.38,24.21.61,38.53-9.07,44.52-31.52,2.4-8.98,3.33-18.53,3.61-27.86.56-18.24.34-36.51.15-54.77-.09-8.45,2.5-13.47,12.05-13.21,12.95.35,25.91.14,38.87.1,6.16-.02,10.79,2.34,10.61,8.98-.94,34.04,1.11,68.61-4.2,101.99-6.63,41.69-39.75,67.9-81.6,74.29-23.3,3.56-46,2.28-67.94-5.1-31.03-10.42-52.42-31.34-60.2-63.84-3.26-13.64-5.81-27.82-5.91-41.77-.57-75.98-.29-151.96-.23-227.94,0-4.59.72-9.17,1.27-15.83,21.47-2.35,42.29-1.14,65.73-.77.57,24.48,1.12,47.65,1.74,74.27Z"/>
  <path class="cls-1" d="M532.22,3547.02c-64.75,1.07-126.84-.29-188.34.81-4.59,29.85,10.52,58.46,34.73,69.43,26.15,11.85,56.09,5.64,73.26-16.34,5.36-6.87,10.84-9.62,19.22-9.43,17.46.41,34.95.12,54.23.12-1.52,6.36-1.84,10.37-3.41,13.81-18.01,39.41-48.2,62.41-91.35,69.09-23.19,3.59-45.75,1.5-68.19-3.65-40.78-9.36-67.56-34.8-80.22-74.19-12.12-37.7-13.32-76.61-4.54-115.02,13.08-57.25,53.56-91.14,116.28-94.67,15.08-.85,30.63.81,45.52,3.65,27.7,5.28,50.12,19.65,65.78,43.66,21.82,33.45,24.92,71.23,27.02,112.73ZM460.5,3505.5c.53-26.12-7.89-44.98-28.61-57.03-20.63-11.99-41.86-11.96-61.47,2.01-18.19,12.96-27.25,30.97-26.01,55.02h116.09Z"/>
  <path class="cls-1" d="M1292.95,3529.72c2.36-15.63,3.32-31.64,7.34-46.83,15.45-58.32,58.92-90.76,117.13-96,21.68-1.95,43.44-.88,64.58,6.13,34.12,11.3,60.61,31.73,75.09,64.95,21.56,49.46,21.7,99.49-1.38,148.58-17.57,37.36-48.78,58.02-88.25,66.61-23.84,5.19-47.97,4.54-71.79-.85-54.46-12.33-93.08-53.15-100.28-117.65-.91-8.13-.12-16.46-.12-24.69-.77-.08-1.54-.15-2.32-.23ZM1506.11,3532.41c-.59-.16-1.18-.33-1.76-.49-.63-8.78-.68-17.66-2.06-26.33-1.19-7.49-3.27-14.97-6.01-22.05-9.89-25.49-31.36-39.2-60.92-39.46-28.41-.25-51.09,10.28-62.11,37.53-13.05,32.28-13.04,65.61-.74,98.18,10.14,26.86,32.22,40.15,62.42,39.88,30.23-.28,52.05-13.88,61.43-41.1,5.08-14.75,6.63-30.72,9.77-46.14Z"/>
  <path class="cls-1" d="M4066.96,3531.86c-3.49,18.97-4.95,38.6-10.86,56.78-14.12,43.45-44.16,71.22-88.83,82.62-29.79,7.6-59.59,7.13-88.79-1.83-40.28-12.36-68.05-38.6-81.93-78.76-13.33-38.55-13.49-77.51-1-116.07,16.46-50.79,57.42-82.56,114.63-87.73,19.89-1.8,39.93-.94,59.52,4.51,53.48,14.9,86.87,56.21,93.77,113.62,1.05,8.74.95,17.62,1.38,26.44.7.14,1.41.29,2.11.43ZM3928.73,3444.07c-36.3-.42-58.92,16.61-67.25,52.07-5.71,24.32-5.54,49.05.5,73.34,8,32.21,30.61,49.64,63.73,50.18,33.53.55,56.81-15.85,66.02-47.33,7.78-26.55,7.7-53.43.27-80.02-8.86-31.72-30.48-47.86-63.27-48.25Z"/>
  <path class="cls-1" d="M3107.79,3591.71c-3.07,8.18-4.7,14.32-7.56,19.81-18.33,35.27-47.14,55.79-86.45,62.8-21.39,3.82-42.41,2.31-63.13-1.64-46.51-8.86-76.86-36.62-89.36-82.45-9.09-33.31-10.97-67.3-4.22-101.33,12.31-62.03,52.29-97.52,117.53-102.16,19.53-1.39,38.8.89,57.49,6.8,34.73,10.98,57.1,35.23,67.76,68.97,6.66,21.08,9.89,43.47,12.48,65.54,2.13,18.13.05,19.25-17.87,19.31-45.91.15-91.83.03-137.74.08-8.23,0-16.48.08-24.7.55-7.17.41-10.51,4.57-9.71,11.77,6.3,56.67,55.28,75.02,92.45,56.26,7.52-3.79,13.1-11.32,19.81-16.85,3.41-2.81,7.26-7,11.04-7.14,19.82-.72,39.68-.33,62.17-.33ZM2926.28,3504.35c20.21,4.07,101.94,3.24,114.22-.96,2.36-35.51-21.49-61.68-55.82-63.16-33.85-1.47-63.1,32.79-58.4,64.12Z"/>
  <path class="cls-1" d="M2253.42,3591.61c-4.86,19.63-13.6,33.94-25.04,46.59-26.92,29.78-61.98,39.22-100.51,38.12-12.82-.37-25.74-2.8-38.31-5.62-40.19-9-66.96-34.01-79.52-72.61-12.39-38.07-14.81-77.31-5.16-116.6,14.35-58.43,54.44-90.28,114.81-94.41,16.2-1.11,33.05.62,49,3.95,32.39,6.76,56.25,25.81,70.99,55.73,12.99,26.37,18.17,54.52,18.55,83.68.2,15.28-1.23,16.85-17.38,16.91-48.86.19-97.72.07-146.58.11-5.29,0-10.61.05-15.87.5-7.06.61-10.37,4.42-9.65,11.82,5.06,51.5,48.45,73.25,85.9,59.02,9.35-3.55,17.94-11.02,24.8-18.57,5.31-5.84,10.03-8.87,17.8-8.72,18.02.35,36.04.11,56.17.11ZM2072.81,3505.53c5.92.39,12.2,1.13,18.48,1.17,23.56.14,47.11.07,70.67.06,28.87-.01,32.57-6.07,20.24-33.13-11.53-25.3-41.25-39.15-67.79-31.58-26.26,7.49-44.88,34.94-41.59,63.48Z"/>
  <path class="cls-1" d="M1033.03,3634.51c-3.43,3.62-7.09,7.07-10.27,10.9-23.66,28.51-69.24,38.01-105.28,25.84-34.36-11.6-59.3-44.76-60.06-83.72-1.17-60.03-.49-120.09-.34-180.14.03-12.08,1.4-13.28,13.12-13.55,14.12-.33,28.26.17,42.38-.16,9.13-.22,12.97,3.82,12.44,12.72-.21,3.52-.01,7.06-.01,10.59,0,44.15,0,88.31,0,132.46,0,5.89-.04,11.78.13,17.66.89,30.32,14.35,47.71,40.11,51.93,28.3,4.64,54.6-9.53,63.57-35.72,3.35-9.79,4.72-20.68,4.83-31.1.51-45.33.22-90.66.23-135.99,0-4.12.06-8.24.07-12.36.01-6.39,3.05-10,9.58-10.02,16.48-.05,32.96-.05,49.44.09,5.71.05,8.46,3.47,8.7,8.98.15,3.53.17,7.06.17,10.59,0,78.89,0,157.78,0,236.66,0,2.94-.14,5.89-.07,8.83.16,7.5-3.93,10.63-10.95,10.65-14.13.04-28.26,0-42.38.02-8.35.01-11.27-4.48-11.08-12.37.18-7.26-.34-14.55-.55-21.82-1.26-.33-2.52-.66-3.77-.99Z"/>
  <path class="cls-1" d="M4325.46,3472.76c-20.76,0-38.85.45-56.88-.41-3.26-.16-7.48-5.16-9.17-8.87-8.37-18.37-23.35-26.15-42.35-26.27-12.21-.08-24.61,1.26-36.61,3.62-9.73,1.91-16.72,8.31-17.99,19.21-1.25,10.74,3.61,18.61,12.56,23.27,9.32,4.86,19.17,9.04,29.2,12.18,20.75,6.5,41.79,12.02,62.67,18.12,7.32,2.14,14.66,4.39,21.73,7.23,52.74,21.18,64.56,87.87,22.48,126.68-13.77,12.7-30.2,20.14-48.46,23.85-40.02,8.12-79.56,7.49-117.91-7.79-26.37-10.51-45.86-28.52-54.82-56.13-2.06-6.34-1.99-13.37-3.27-22.81,22.14,0,41.97-.32,61.76.34,2.96.1,7.36,4.25,8.38,7.4,7.26,22.37,25.1,30.01,45.74,33.35,16.59,2.68,32.92.26,48.36-6.37,9.78-4.2,16.4-11.2,16.66-22.76.25-11.12-4.48-19.9-14.01-24.71-9.35-4.71-19.54-7.96-29.62-10.98-20.25-6.06-40.85-10.97-60.96-17.45-10.54-3.4-20.58-8.65-30.43-13.84-27.68-14.59-37.87-38.57-36.53-68.85,1.35-30.69,17.47-50.79,45.05-61.5,43.79-17.01,88.49-17.57,132.96-2.73,27.44,9.16,42.54,30.35,50.13,57.31,1.37,4.86.8,10.26,1.34,18.93Z"/>
  <path class="cls-1" d="M6.37,3584.52c21.34,0,40.64,0,59.95,0,6.39,0,9.03,3.74,10.85,9.46,5.35,16.8,18.12,25.21,34.43,29.6,19.5,5.25,38.44,3.44,57.08-3.65,10.8-4.11,18.12-11.29,18.25-23.41.12-11.48-4.78-20.83-15.52-25.61-9.08-4.04-18.59-7.22-28.12-10.11-23.03-6.99-46.23-13.4-69.24-20.47-6.13-1.88-11.96-4.95-17.65-8-34.63-18.58-45.43-40.88-39.73-83.8,2.9-21.84,17.11-38.01,37.23-46.11,17.24-6.94,35.72-11.91,54.11-14.6,26.33-3.84,52.9-1.67,78.57,6.07,34.89,10.53,57.29,39.76,58.42,76.45-3.49.88-7.22,2.47-11.02,2.64-9.4.42-18.87-.4-28.23.34-14.69,1.16-25.56-1.52-32.12-17.34-2.85-6.86-12.39-12.63-20.14-15.42-18.17-6.54-37.07-5.28-55.45.49-9.06,2.85-15.29,9.11-16.64,18.75-1.36,9.7,2.87,17.86,11.16,22.28,10.29,5.48,21.2,10.15,32.32,13.67,23.52,7.45,47.48,13.54,71,21,10.56,3.35,20.81,8.07,30.66,13.21,13.82,7.21,22.64,19.18,25.46,34.33,8.33,44.74-1.38,81.36-52.91,101.89-23.78,9.47-49.31,12.01-74.61,9.92-18.58-1.54-37.54-4.68-55.14-10.65-32.57-11.05-55.2-33.06-62.88-67.93-.71-3.23-.09-6.76-.09-13Z"/>
  <path class="cls-1" d="M1593.92,3585.39h65.72c1.05.99,2.4,1.65,2.67,2.61,7.46,27.04,27.85,37.09,53.15,37.95,13.17.45,26.7-2.77,39.68-5.91,11.84-2.87,19.54-11.21,19.63-24.06.09-12.37-6.32-21.37-17.67-26.1-8.64-3.6-17.61-6.5-26.61-9.14-20.85-6.13-41.98-11.35-62.63-18.06-10.52-3.42-20.79-8.4-30.24-14.2-30.97-18.98-43.16-54.82-30.89-88.87,7.78-21.61,24.36-34.34,44.87-42.07,29.73-11.2,60.73-13.26,92.07-9.58,10.47,1.23,21.04,3.03,31.08,6.13,32.28,9.97,50.38,33.09,57.95,65.21.77,3.25.1,6.84.1,12.2-19.91,2.89-39.12,2.39-58.16.41-3.57-.37-7.25-6.89-9.5-11.28-6.08-11.9-15.49-19.2-28.32-21.79-16.93-3.42-33.92-3.54-50.52,2.02-9.66,3.23-16.32,9.71-17.33,20.2-.94,9.8,3.97,17.44,12.31,21.73,9.87,5.07,20.2,9.57,30.78,12.88,24.67,7.71,49.82,13.93,74.4,21.9,48.16,15.62,61.53,37.03,53.36,93.55-3.31,22.92-19.84,38.26-39.82,48.98-27.9,14.97-58.46,17.76-89.15,15.9-17.98-1.09-36.39-4.47-53.41-10.33-34.55-11.89-57.98-35.17-64.06-72.86-.26-1.64.21-3.39.53-7.43Z"/>
  <path class="cls-1" d="M2671.46,3573.46c-6.97,40.25-26.1,67.33-57.36,85.07-39.33,22.33-80.79,24.02-122.22,6.44-33.23-14.1-52.06-41.56-61.79-75.19-10.83-37.43-11.45-75.72-2.42-113.45,14.88-62.22,55.88-85.1,110-89.42,27.96-2.23,55.16,2.45,80.23,16.09,27.44,14.92,44.57,37.8,51.76,68.07,1.16,4.9.83,10.15,1.34,17.42-21.36,1.79-41.19,1.24-60.97.35-2.61-.12-5.64-3.68-7.41-6.35-2.23-3.38-3-7.69-5.02-11.24-10.49-18.49-26.36-27.38-47.77-27.72-21.38-.35-37.71,7.4-48.27,26.32-.86,1.54-1.88,3.04-2.45,4.69-13.87,40.7-14.22,80.87,6.56,119.46,9.39,17.43,25.02,26.74,45.09,25.34,20.48-1.43,39.14-9.38,46.53-29.55,5.59-15.24,14.63-17.41,28.1-16.71,14.46.75,28.99.31,46.04.4Z"/>
  <path class="cls-1" d="M2758.11,3393.89c1.22,11.2,2.09,19.14,3.4,31.13,6-5.61,9.88-8.54,12.91-12.19,16.25-19.56,48.84-30.96,73.31-24.77,4.61,11.76,5.48,43.77,1.36,65.7-6.24.48-13.02,1.08-19.81,1.51-39.26,2.53-58.72,20.29-64.27,59.16-.99,6.95-1.14,14.06-1.16,21.09-.11,38.23.03,76.46-.09,114.69-.06,18.97-.63,19.41-20.13,19.53-11.76.08-23.53-.13-35.29.01-8.72.11-13.21-3.73-13.01-12.65.08-3.53-.04-7.06-.04-10.59,0-77.05,0-154.09,0-231.14,0-4.11-.03-8.24.25-12.34.36-5.32,2.9-9.07,8.67-9.11,17.48-.13,34.97-.05,53.9-.05Z"/>
  <path class="cls-1" d="M1136.37,3669.53v-20.74c0-78.19,0-156.38,0-234.57,0-3.53.04-7.05.08-10.58.07-6.45,3.32-9.79,9.78-9.8,16.96-.04,33.91-.01,52.74-.01,1.02,9.72,1.91,18.14,2.83,26.84,8.3,1.94,10.55-4.87,13.97-8.81,16.03-18.49,48.55-30.5,73.58-23.43,4.12,12.59,4.58,47.02.46,65.56-5.13.37-10.78.94-16.44,1.15-44.89,1.6-68.04,24.64-68.67,69.76-.57,40.56-.14,81.13-.17,121.69,0,4.7-.03,9.41-.23,14.1-.24,5.66-3.57,8.73-9,8.78-18.65.17-37.3.07-58.94.07Z"/>
  <path class="cls-1" d="M3436.13,3528.33c0-38.86-.11-77.72.06-116.58.07-17.28.79-17.82,17.95-17.98,12.36-.12,24.73-.26,37.09.06,11.45.3,12.68,1.78,13.36,13.58.17,2.93.05,5.89.05,8.83,0,75.95,0,151.91,0,227.86,0,2.94.11,5.89-.04,8.83-.66,12.78-1.97,14.46-14.29,14.86-12.94.42-25.91.41-38.85,0-13.3-.41-15-2.08-15.2-15.82-.33-22.96-.12-45.92-.13-68.89,0-18.25,0-36.51,0-54.76Z"/>
  <path class="cls-1" d="M3066.87,3301.85c-40.16,17.04-79.37,33.68-119.77,50.82-5.33-9.38-9.84-17.32-15.31-26.94,37.6-22.16,73.84-43.52,110.91-65.37,10.64,12.54,17.29,25.81,24.17,41.5Z"/>
  <path class="cls-1" d="M3437.21,3355.4v-60.68c10.79-6.04,21.57-2.72,31.88-3.38,7.62-.49,15.3.12,22.95-.13,7.81-.26,12.48,2.6,12.48,10.97,0,14.12.07,28.25-.03,42.37-.04,5.87-2,10.73-8.87,10.79-18.69.17-37.38.06-58.42.06Z"/>
</svg>